<?xml version="1.0" standalone="no"?>
<!DOCTYPE svg PUBLIC "-//W3C//DTD SVG 20010904//EN"
 "http://www.w3.org/TR/2001/REC-SVG-20010904/DTD/svg10.dtd">
<svg version="1.0" xmlns="http://www.w3.org/2000/svg"
 width="723.000000pt" height="723.000000pt" viewBox="0 0 723.000000 723.000000"
 preserveAspectRatio="xMidYMid meet">
<metadata>
Created by potrace 1.11, written by Peter Selinger 2001-2013
</metadata>
<g transform="translate(0.000000,723.000000) scale(0.100000,-0.100000)"
fill="#000000" stroke="none">
<path d="M3398 7225 c-2 -2 -37 -6 -78 -9 -91 -7 -176 -15 -210 -21 -14 -3
-47 -8 -75 -11 -27 -4 -53 -8 -56 -10 -3 -1 -28 -6 -55 -10 -27 -3 -53 -9 -59
-12 -5 -4 -21 -8 -35 -10 -84 -11 -423 -113 -525 -158 -22 -10 -42 -18 -45
-18 -29 -4 -293 -131 -445 -215 -92 -51 -307 -196 -414 -279 -227 -177 -456
-404 -626 -623 -37 -46 -73 -92 -80 -101 -22 -27 -179 -267 -214 -328 -52 -90
-186 -369 -221 -460 -18 -47 -38 -98 -45 -115 -45 -104 -142 -470 -161 -605
-2 -19 -6 -44 -9 -55 -2 -11 -7 -42 -10 -70 -4 -27 -8 -61 -11 -75 -12 -78
-19 -221 -19 -425 1 -305 14 -443 66 -710 115 -575 362 -1101 737 -1568 168
-207 424 -456 624 -602 40 -30 78 -58 83 -62 58 -51 332 -215 485 -292 256
-130 619 -255 885 -307 22 -4 42 -8 45 -9 3 0 27 -4 53 -9 27 -4 56 -9 65 -11
10 -1 37 -6 62 -9 25 -3 56 -8 69 -11 136 -26 672 -26 866 0 173 24 278 43
430 80 118 28 351 98 405 122 8 3 17 7 20 8 3 1 22 9 44 18 21 9 42 17 47 17
5 0 17 4 27 10 9 5 87 43 172 84 476 228 873 543 1238 980 72 86 292 403 292
420 0 2 17 33 39 68 146 240 301 636 375 958 33 143 43 200 61 335 4 28 9 61
11 75 29 204 25 736 -7 877 -5 24 -8 46 -7 50 1 5 -2 28 -6 53 -5 25 -10 56
-13 70 -11 71 -46 225 -68 305 -14 50 -27 100 -30 112 -9 37 -75 223 -112 312
-68 165 -174 374 -266 526 -67 111 -257 374 -307 425 -8 9 -33 38 -54 64 -53
66 -243 256 -341 341 -233 204 -497 380 -780 522 -55 27 -104 51 -110 53 -5 2
-35 14 -65 28 -78 34 -257 102 -310 117 -25 7 -76 22 -115 34 -59 18 -194 51
-270 67 -11 2 -31 6 -45 9 -14 2 -41 7 -60 10 -19 3 -48 8 -63 11 -34 7 -61
11 -143 19 -33 4 -74 8 -90 11 -37 6 -541 14 -546 9z"/>
</g>
</svg>
