<?xml version="1.0" encoding="UTF-8" standalone="no"?>
<svg
   xmlns:dc="http://purl.org/dc/elements/1.1/"
   xmlns:cc="http://creativecommons.org/ns#"
   xmlns:rdf="http://www.w3.org/1999/02/22-rdf-syntax-ns#"
   xmlns:svg="http://www.w3.org/2000/svg"
   xmlns="http://www.w3.org/2000/svg"
   xmlns:sodipodi="http://sodipodi.sourceforge.net/DTD/sodipodi-0.dtd"
   xmlns:inkscape="http://www.inkscape.org/namespaces/inkscape"
   width="2500"
   height="2500"
   viewBox="7.025 7.025 497.951 497.95"
   version="1.1"
   id="svg853"
   sodipodi:docname="linkedin.svg"
   inkscape:version="0.92.3 (2405546, 2018-03-11)">
  <metadata
     id="metadata859">
    <rdf:RDF>
      <cc:Work
         rdf:about="">
        <dc:format>image/svg+xml</dc:format>
        <dc:type
           rdf:resource="http://purl.org/dc/dcmitype/StillImage" />
      </cc:Work>
    </rdf:RDF>
  </metadata>
  <defs
     id="defs857" />
  <sodipodi:namedview
     pagecolor="#ffffff"
     bordercolor="#666666"
     borderopacity="1"
     objecttolerance="10"
     gridtolerance="10"
     guidetolerance="10"
     inkscape:pageopacity="0"
     inkscape:pageshadow="2"
     inkscape:window-width="1920"
     inkscape:window-height="1017"
     id="namedview855"
     showgrid="false"
     inkscape:zoom="0.22"
     inkscape:cx="1250"
     inkscape:cy="1250"
     inkscape:window-x="1912"
     inkscape:window-y="-8"
     inkscape:window-maximized="1"
     inkscape:current-layer="svg853" />
  <linearGradient
     id="a"
     gradientUnits="userSpaceOnUse"
     x1="-974.482"
     y1="1306.773"
     x2="-622.378"
     y2="1658.877"
     gradientTransform="translate(1054.43 -1226.825)">
    <stop
       offset="0"
       stop-color="#2489be"
       id="stop846" />
    <stop
       offset="1"
       stop-color="#0575b3"
       id="stop848" />
  </linearGradient>
  <rect
     style="opacity:1;fill:#ffffff;fill-opacity:1;stroke:none;stroke-width:1.40097535;stroke-linecap:round;stroke-linejoin:round;stroke-miterlimit:4;stroke-dasharray:none;stroke-dashoffset:82.39488983;stroke-opacity:1;paint-order:stroke fill markers"
     id="rect1404"
     width="302.39206"
     height="287.00085"
     x="109.33129"
     y="101.1825" />
  <path
     d="M256 7.025C118.494 7.025 7.025 118.494 7.025 256S118.494 504.975 256 504.975 504.976 393.506 504.976 256C504.975 118.494 393.504 7.025 256 7.025zm-66.427 369.343h-54.665V199.761h54.665v176.607zM161.98 176.633c-17.853 0-32.326-14.591-32.326-32.587 0-17.998 14.475-32.588 32.326-32.588s32.324 14.59 32.324 32.588c.001 17.997-14.472 32.587-32.324 32.587zm232.45 199.735h-54.4v-92.704c0-25.426-9.658-39.619-29.763-39.619-21.881 0-33.312 14.782-33.312 39.619v92.704h-52.43V199.761h52.43v23.786s15.771-29.173 53.219-29.173c37.449 0 64.257 22.866 64.257 70.169l-.001 111.825z"
     fill="url(#a)"
     id="path851" />
</svg>
